<svg xmlns="http://www.w3.org/2000/svg" width="24" height="24" viewBox="0 0 24 24"><title>check_box_hover</title><path d="M9.984 17.016l9-9-1.406-1.453-7.594 7.594-3.563-3.563L5.015 12zm9-14.016C20.109 3 21 3.938 21 5.016v13.969c0 1.078-.891 2.016-2.016 2.016H5.015c-1.125 0-2.016-.938-2.016-2.016V5.016C2.999 3.938 3.89 3 5.015 3h13.969z"/><path d="M21.08.3c1.4 0 2.62 1.22 2.62 2.62v18.16c0 1.402-1.22 2.621-2.62 2.621H2.92c-1.402 0-2.621-1.22-2.621-2.62V2.92C.299 1.519 1.519.3 2.919.3h18.16zm0 2.62H2.92v18.16h18.16V2.92z"/></svg>